<?xml version="1.0" encoding="utf-8"?>
<!-- Generator: Adobe Illustrator 13.0.2, SVG Export Plug-In . SVG Version: 6.00 Build 14948)  -->
<!DOCTYPE svg PUBLIC "-//W3C//DTD SVG 1.1//EN" "http://www.w3.org/Graphics/SVG/1.1/DTD/svg11.dtd">
<svg version="1.1" id="Ebene_1" xmlns="http://www.w3.org/2000/svg" xmlns:xlink="http://www.w3.org/1999/xlink" x="0px" y="0px"
	 width="639.045px" height="104.214px" viewBox="0 0 639.045 104.214" enable-background="new 0 0 639.045 104.214"
	 xml:space="preserve">
<g>
	<polyline fill="#E42938" points="140.273,0 333.342,0 290.658,103.879 97.586,103.879 140.273,0 	"/>
	<path fill="#231F20" d="M0,71.921h9.174l3.439-16.304h8.647c3.624,0,6.019,0.996,6.019,5.029c0,2.803-0.471,5.663-0.471,8.469
		c0,0.934,0.177,1.805,0.414,2.801h8.941c-0.471-1.232-0.586-2.978-0.586-4.85c0-2.566,0.289-5.367,0.289-7.236
		c0-3.276-0.875-6.316-4.319-7.361v-0.113c5.61-0.821,9.578-5.549,9.578-11.219c0-8.059-4.908-11.042-12.442-10.919H8.764L0,71.921
		 M16.474,37.34h8.703c3.624,0,6.783,0.643,6.783,5.141c0,4.676-4.617,6.545-9.466,6.6h-8.476L16.474,37.34z"/>
	<path fill="#231F20" d="M60.861,60.357c-0.932,3.269-2.627,6.834-7.771,6.834c-2.394,0-4.556-1.105-4.556-3.389
		c0-3.791,2.976-4.556,6.13-4.906c2.396-0.177,4.911-0.231,7.013-1.464L60.861,60.357 M51.924,50.893
		c0.528-3.037,3.155-4.438,6.134-4.438c2.101,0,5.258,0.702,5.258,3.682c0,3.852-3.681,3.44-11.503,4.379
		c-7.185,0.874-11.571,4.496-11.571,10.279c0,4.207,3.218,7.946,9.816,7.946c3.386,0,6.951-1.228,9.229-3.794v2.978h8.293
		c-0.173-0.525-0.289-1.228-0.289-1.753c0-1.17,0.116-3.042,0.406-4.09l2.692-12.156c0.349-1.862,0.637-3.789,0.637-5.076
		c0.118-6.776-7.182-7.946-12.561-7.946c-6.833,0-13.258,2.393-14.312,9.985h7.771V50.893z"/>
	<path fill="#231F20" d="M72.903,71.921h8.351l6.427-30.207h-8.352L72.903,71.921 M90.132,30.213h-8.35l-1.522,6.836h8.354
		L90.132,30.213z"/>
	<polyline fill="#231F20" points="88.023,71.921 96.317,71.921 105.196,30.218 96.903,30.218 88.023,71.921 	"/>
	<path fill="#FFFFFF" d="M172.135,42.774c0.238-10.167-7.066-15.484-16.702-15.484c-14.083,0-22.786,11.745-22.786,25.238
		c0,11.74,6.833,18.462,18.519,18.462c9.053,0,15.36-4.384,19.102-16.01h-9.174c-0.815,4.387-4.729,8.295-9.808,8.295
		c-6.661,0-9.466-5.021-9.466-10.747c0-8.004,4.271-17.528,13.671-17.528c4.383,0,7.477,2.634,7.477,7.774H172.135"/>
	<path fill="#FFFFFF" d="M192.816,58.426c-0.932,3.269-2.627,6.836-7.77,6.836c-2.395,0-4.557-1.11-4.557-3.386
		c0-3.799,2.978-4.561,6.13-4.909c2.396-0.182,4.911-0.236,7.012-1.464L192.816,58.426 M183.881,48.966
		c0.529-3.037,3.153-4.441,6.13-4.441c2.106,0,5.26,0.702,5.26,3.68c0,3.854-3.677,3.445-11.505,4.379
		c-7.182,0.884-11.567,4.501-11.567,10.284c0,4.207,3.215,7.946,9.812,7.946c3.392,0,6.951-1.228,9.23-3.794v2.978h8.293
		c-0.173-0.525-0.29-1.228-0.29-1.753c0-1.17,0.117-3.037,0.41-4.093l2.688-12.146c0.35-1.867,0.644-3.797,0.644-5.084
		c0.112-6.776-7.188-7.946-12.56-7.946c-6.836,0-13.265,2.395-14.316,9.99H183.881z"/>
	<path fill="#FFFFFF" d="M205.735,69.994h8.292l2.799-13.376c1.111-5.138,3.393-9.933,9.761-9.933c1.165,0,2.334,0.294,3.5,0.525
		l1.699-8.063c-0.877-0.117-1.695-0.172-2.573-0.172c-4.435,0-8.526,2.218-10.394,6.368l-0.116-0.117l1.228-5.435h-7.887
		L205.735,69.994"/>
	<path fill="#FFFFFF" d="M246.904,45.222c4.029,0,5.95,2.748,5.95,6.545c0,5.141-2.862,11.506-8.816,11.506
		c-3.854,0-5.609-3.092-5.609-6.654C238.433,51.767,241.354,45.222,246.904,45.222 M263.61,39.792h-7.952l-0.928,4.618h-0.116
		c-1.697-3.976-5.08-5.435-9.231-5.435c-9.694,0-15.248,9.402-15.248,18.223c0,7.419,4.436,12.325,11.628,12.325
		c3.384,0,6.131-1.401,8.293-4.267l0.113,0.114c-1.632,5.902-3.15,10.516-8.411,10.516c-2.691,0-5.553-1.287-5.437-4.324h-8.296
		c0,7.244,6.783,9.881,12.913,9.881c9.99,0,14.603-3.861,16.651-13.035L263.61,39.792z"/>
	<path fill="#FFFFFF" d="M265.415,57.783c0,8.644,5.436,13.027,13.845,13.027c10.981,0,17.583-8.417,17.583-19.047
		c0-8.703-5.782-12.792-14.079-12.792C272.017,38.971,265.415,47.562,265.415,57.783 M273.708,57.783
		c0-5.081,2.691-12.562,8.766-12.562c4.32,0,6.076,2.629,6.076,6.659c0,5.089-2.688,12.679-8.88,12.679
		C275.752,64.56,273.708,61.354,273.708,57.783z"/>
	<path fill="#231F20" d="M345.098,39.207h0.11l2.048,16.595h-11.151L345.098,39.207 M317.519,71.921h9.702l5.254-9.293h15.598
		l1.346,9.293h9.115l-6.957-41.703h-9.401L317.519,71.921z"/>
	<path fill="#231F20" d="M395.084,41.719h-8.291l-3.391,16.064c-0.879,4.21-3.445,8.42-8.468,8.42c-1.93,0-3.975-1.287-3.975-3.1
		c0-0.816,0.295-2.806,0.526-3.682l3.68-17.7h-8.291l-3.743,17.7c-0.235,1.056-0.875,3.973-0.875,5.2
		c0,5.266,3.096,8.123,8.825,8.123c4.315,0,7.879-1.695,10.57-5.023h0.11l-0.935,4.207h7.946L395.084,41.719"/>
	<path fill="#231F20" d="M424.223,50.544c0.113-7.77-5.78-9.638-12.388-9.638c-5.839,0-13.373,2.454-13.373,9.579
		c0,4.732,2.394,6.368,6.541,7.71l6.365,2.044c1.813,0.585,2.981,1.229,2.981,3.331c0,2.743-2.75,3.627-5.262,3.627
		c-2.856,0-5.952-1.35-5.952-4.101v-0.988h-7.711v1.228c0,7.07,6.953,9.4,12.847,9.4c6.949,0,14.369-2.796,14.369-10.279
		c0-5.089-3.5-7.189-7.945-8.641l-4.147-1.342c-2.802-0.883-3.791-1.698-3.791-3.04c0-2.163,2.158-2.982,5.078-2.982
		c3.158,0,4.614,1.519,4.677,4.088h7.711"/>
	<path fill="#231F20" d="M444.944,32.553h-8.299l-1.868,9.169h-5.316l-1.279,5.554h5.431l-3.387,16.177
		c-0.239,1.056-0.412,2.104-0.412,2.86c-0.117,4.914,4.026,6.134,7.888,6.134c1.754,0,3.5-0.114,5.202-0.291l1.401-6.428
		c-0.997,0.119-1.985,0.182-2.982,0.182c-1.224,0-2.798-0.063-2.798-2.221c0-0.239,0.114-0.762,0.235-1.409l3.097-15.009h5.897
		l1.283-5.552h-5.953L444.944,32.553"/>
	<path fill="#231F20" d="M448.326,71.921h8.295l2.798-13.373c1.11-5.144,3.395-9.931,9.759-9.931c1.169,0,2.331,0.289,3.5,0.525
		l1.703-8.063c-0.887-0.117-1.703-0.173-2.578-0.173c-4.438,0-8.53,2.222-10.398,6.37l-0.113-0.119l1.224-5.438h-7.879
		L448.326,71.921"/>
	<path fill="#231F20" d="M471.622,71.921h8.351l6.423-30.207h-8.342L471.622,71.921 M488.852,30.213h-8.35l-1.519,6.836h8.35
		L488.852,30.213z"/>
	<path fill="#231F20" d="M507.074,60.357c-0.938,3.269-2.629,6.834-7.777,6.834c-2.394,0-4.556-1.105-4.556-3.389
		c0-3.791,2.979-4.556,6.138-4.906c2.394-0.177,4.9-0.231,7.004-1.464L507.074,60.357 M498.136,50.893
		c0.533-3.037,3.151-4.438,6.129-4.438c2.111,0,5.266,0.702,5.266,3.682c0,3.852-3.681,3.44-11.512,4.379
		c-7.185,0.874-11.568,4.496-11.568,10.279c0,4.207,3.218,7.946,9.813,7.946c3.395,0,6.953-1.228,9.233-3.794v2.978h8.29
		c-0.172-0.525-0.289-1.228-0.289-1.753c0-1.17,0.117-3.042,0.411-4.09l2.691-12.156c0.351-1.862,0.637-3.789,0.637-5.076
		c0.114-6.776-7.181-7.946-12.557-7.946c-6.835,0-13.263,2.393-14.314,9.985h7.77V50.893z"/>
	<path fill="#231F20" d="M622.481,103.751h9.358c1.311,0,3.614-0.197,5.039-1.425c1.849-1.589,2.166-3.292,2.166-4.379
		c0-2.473-1.259-4.296-2.48-5.234c1.511-1.256,1.963-3.014,1.963-4.27c0-0.855-0.397-5.435-7.483-5.435h-8.563V103.751
		 M626.751,86.571h5.063c1.482,0,2.645,0.569,2.645,2.363c0,1.646-1.051,2.361-2.873,2.361h-4.834V86.571z M626.751,94.851h5.801
		c0.796,0,2.421,0.111,2.421,2.441c0,2.845-1.935,2.904-3.214,2.904h-5.008V94.851z"/>
	<path fill="#231F20" d="M601.624,103.751h9.361c1.303,0,3.606-0.197,5.031-1.425c1.852-1.589,2.166-3.292,2.166-4.379
		c0-2.473-1.261-4.296-2.48-5.234c1.506-1.256,1.961-3.014,1.961-4.27c0-0.855-0.398-5.435-7.479-5.435h-8.568L601.624,103.751
		 M605.884,86.571h5.07c1.479,0,2.642,0.569,2.642,2.363c0,1.646-1.048,2.361-2.873,2.361h-4.839V86.571L605.884,86.571z
		 M605.884,94.851h5.809c0.793,0,2.416,0.111,2.416,2.441c0,2.845-1.93,2.904-3.214,2.904h-5.011V94.851L605.884,94.851z"/>
	<polyline fill="#231F20" points="584.657,90.131 591.257,82.949 596.023,82.949 589.439,90.131 584.657,90.131 	"/>
	<path fill="#231F20" d="M595.02,86.576l-2.931,3.3c0.611,1.024,0.902,2.158,0.902,3.386c0,1.778-0.694,3.442-1.947,4.704
		c-1.259,1.253-2.926,1.947-4.707,1.947c-1.775,0-3.445-0.699-4.706-1.947c-1.251-1.259-1.942-2.926-1.942-4.704
		c0-3.409,2.512-6.246,5.824-6.623l3.531-3.952c-0.899-0.239-1.758-0.372-2.707-0.372c-6.035,0-10.949,4.912-10.949,10.952
		c0,2.918,1.139,5.674,3.211,7.736c2.063,2.072,4.818,3.211,7.738,3.211c2.926,0,5.674-1.139,7.744-3.211
		c2.072-2.063,3.211-4.818,3.211-7.736C597.284,90.789,596.518,88.487,595.02,86.576"/>
	<polyline fill="#231F20" points="317.455,103.845 317.455,86.348 327.5,86.348 327.5,88.475 320.26,88.475 320.26,93.847 
		327.158,93.847 327.158,95.945 320.26,95.945 320.26,101.718 327.763,101.718 327.763,103.845 317.455,103.845 	"/>
	<path fill="#231F20" d="M333.75,88.024h-2.625v-2.548h2.625V88.024z M333.75,103.845h-2.625V90.727h2.625V103.845z"/>
	<path fill="#231F20" d="M346.149,103.845v-7.741c0-1.838-0.337-3.591-2.594-3.591c-2.437,0-3.197,2.122-3.197,4.191v7.136h-2.629
		v-10.1c0-0.996-0.024-2.021-0.126-3.017h2.46l0.087,2.26c0.891-1.656,2.361-2.52,4.245-2.52c3.261,0,4.414,2.075,4.414,5.089v8.292
		H346.149"/>
	<path fill="#231F20" d="M367.503,104.131c-4.112,0-6.87-2.335-6.87-6.581V86.345h2.86v11.15c0,2.543,1.311,4.402,4.041,4.402
		c2.7,0,4.065-1.836,4.065-4.402v-11.15h2.856v11.124C374.456,101.697,371.6,104.131,367.503,104.131"/>
	<path fill="#231F20" d="M386.938,103.845v-7.741c0-1.838-0.341-3.591-2.593-3.591c-2.441,0-3.202,2.122-3.202,4.191v7.136h-2.621
		v-10.1c0-0.996-0.027-2.021-0.134-3.017h2.469l0.074,2.26c0.895-1.656,2.37-2.52,4.257-2.52c3.249,0,4.407,2.075,4.407,5.089v8.292
		H386.938"/>
	<path fill="#231F20" d="M397.905,104.131c-2.81,0-3.331-1.938-3.331-4.485v-7.031h-2.413v-1.888h2.417v-2.832l2.645-0.863v3.695
		h2.935v1.888h-2.935v7.346c0,1.131,0.29,2.096,1.624,2.096c0.502,0,0.97-0.102,1.444-0.314l0.125,1.942
		C399.636,103.975,398.714,104.131,397.905,104.131"/>
	<path fill="#231F20" d="M405.07,97.966c0,2.421,1.515,4.329,4.064,4.329c1.178,0,2.751-0.341,3.799-0.915l0.157,2.044
		c-1.311,0.499-2.967,0.707-4.38,0.707c-4.3,0-6.349-2.809-6.349-6.898c0-3.591,2.284-6.769,5.934-6.769
		c3.908,0,5.478,3.014,5.478,6.719v0.78h-8.703 M408.315,92.273c-2.226,0-3.276,2.393-3.276,4.072h6.215
		C411.254,94.479,410.544,92.273,408.315,92.273z"/>
	<path fill="#231F20" d="M423.869,93.062c-0.338-0.13-0.71-0.156-1.079-0.156c-2.57,0-3.253,2.645-3.253,4.693v6.246h-2.617v-10.1
		c0-0.998-0.031-2.021-0.133-3.019h2.46l0.082,2.52c0.554-1.394,1.892-2.777,3.571-2.777c0.364,0,0.737,0,1.099,0.102
		L423.869,93.062"/>
	<path fill="#231F20" d="M434.962,103.845v-7.741c0-1.838-0.338-3.591-2.598-3.591c-2.437,0-3.194,2.122-3.194,4.191v7.136h-2.625
		v-10.1c0-0.996-0.027-2.021-0.133-3.017h2.468l0.074,2.26c0.899-1.656,2.366-2.52,4.258-2.52c3.249,0,4.406,2.075,4.406,5.089
		v8.292H434.962"/>
	<path fill="#231F20" d="M443.516,97.966c0,2.421,1.519,4.329,4.073,4.329c1.177,0,2.751-0.341,3.798-0.915l0.153,2.044
		c-1.307,0.499-2.954,0.707-4.379,0.707c-4.305,0-6.345-2.809-6.345-6.898c0-3.591,2.283-6.769,5.933-6.769
		c3.908,0,5.474,3.014,5.474,6.719v0.78h-8.707 M446.765,92.273c-2.229,0-3.276,2.393-3.276,4.072h6.22
		C449.708,94.479,448.997,92.273,446.765,92.273z"/>
	<path fill="#231F20" d="M463.794,103.845v-7.741c0-1.861-0.345-3.591-2.598-3.591c-2.417,0-3.201,2.122-3.201,4.166v7.161h-2.625
		V84.931h2.625v7.97c0.816-1.628,2.229-2.437,4.064-2.437c3.147,0,4.384,2.096,4.384,5.089v8.292H463.794"/>
	<path fill="#231F20" d="M486.191,103.845v-8.42c0-1.599-0.498-2.912-2.334-2.912c-2.146,0-2.916,2.15-2.916,4.166v7.161h-2.617
		v-8.42c0-1.597-0.502-2.912-2.339-2.912c-2.146,0-2.931,2.15-2.931,4.168v7.156h-2.625V93.737c0-0.998-0.023-2.021-0.13-3.019
		h2.465l0.078,2.26c0.871-1.678,2.236-2.518,4.018-2.518c2.072,0,3.434,1.235,3.826,2.676c0.632-1.625,2.335-2.676,4.014-2.676
		c2.857,0,4.144,1.938,4.144,4.637v8.734h-2.652"/>
	<path fill="#231F20" d="M494.741,97.966c0,2.421,1.519,4.329,4.069,4.329c1.178,0,2.755-0.341,3.803-0.915l0.152,2.044
		c-1.311,0.499-2.966,0.707-4.379,0.707c-4.301,0-6.349-2.809-6.349-6.898c0-3.591,2.283-6.769,5.933-6.769
		c3.912,0,5.478,3.014,5.478,6.719v0.78h-8.707 M497.994,92.273c-2.232,0-3.28,2.393-3.28,4.072h6.216
		C500.93,94.479,500.224,92.273,497.994,92.273z"/>
	<path fill="#231F20" d="M515.012,103.845v-7.741c0-1.838-0.341-3.591-2.593-3.591c-2.441,0-3.202,2.122-3.202,4.191v7.136h-2.621
		v-10.1c0-0.996-0.027-2.021-0.134-3.017h2.469l0.074,2.26c0.902-1.656,2.37-2.52,4.257-2.52c3.25,0,4.407,2.075,4.407,5.089v8.292
		H515.012"/>
	<path fill="#231F20" d="M538.331,103.845l-0.156-2.179c-0.809,1.648-2.304,2.462-4.116,2.462c-3.96,0-5.427-3.435-5.427-6.896
		c0-3.492,1.459-6.769,5.427-6.769c1.628,0,3.308,0.887,3.96,2.437v-7.973h2.616v14.978c0,1.443,0.06,2.704,0.133,3.935h-2.437
		 M534.742,92.484c-2.701,0-3.276,2.574-3.276,4.771c0,2.15,0.622,4.854,3.3,4.854c2.554,0,3.334-2.777,3.334-4.854
		C538.1,95.16,537.283,92.484,534.742,92.484z"/>
	<path fill="#231F20" d="M546.54,97.966c0,2.421,1.523,4.329,4.069,4.329c1.181,0,2.751-0.341,3.802-0.915l0.158,2.044
		c-1.311,0.499-2.964,0.707-4.387,0.707c-4.293,0-6.35-2.809-6.35-6.898c0-3.591,2.288-6.769,5.937-6.769
		c3.908,0,5.481,3.014,5.481,6.719v0.78h-8.711 M549.793,92.273c-2.226,0-3.276,2.393-3.276,4.072h6.223
		C552.731,94.479,552.026,92.273,549.793,92.273z"/>
	<path fill="#231F20" d="M565.348,93.062c-0.341-0.13-0.71-0.156-1.079-0.156c-2.571,0-3.253,2.645-3.253,4.693v6.246h-2.626v-10.1
		c0-0.998-0.023-2.021-0.125-3.019h2.465l0.081,2.52c0.551-1.394,1.888-2.777,3.567-2.777c0.369,0,0.738,0,1.1,0.102L565.348,93.062
		"/>
</g>
</svg>
